<svg xmlns="http://www.w3.org/2000/svg" version="1.1" xmlns:xlink="http://www.w3.org/1999/xlink" xmlns:svgjs="http://svgjs.com/svgjs" width="512" height="512" x="0" y="0" viewBox="0 0 512 512" style="enable-background:new 0 0 512 512" xml:space="preserve" class=""><g><path xmlns="http://www.w3.org/2000/svg" clip-rule="evenodd" d="m284.904 362.926v35.509h23.594c15.962 0 28.906 12.944 28.906 28.906s-12.944 28.907-28.906 28.907h-23.594v26.845c0 15.962-12.944 28.907-28.906 28.907s-28.906-12.944-28.906-28.907v-26.845h-23.603c-15.957 0-28.906-12.948-28.906-28.907 0-15.958 12.949-28.906 28.906-28.906h23.603v-35.509c-87.699-13.981-153.705-90.192-153.705-180.315 0-100.699 81.911-182.611 182.611-182.611 100.699 0 182.615 81.911 182.615 182.611 0 90.125-66.007 166.334-153.709 180.315zm-153.709-180.315c0 68.805 55.999 124.798 124.802 124.798 68.806 0 124.802-55.991 124.802-124.798s-55.997-124.798-124.802-124.798c-68.802 0-124.802 55.993-124.802 124.798z" fill-rule="evenodd" fill="#000000" data-original="#000000"></path></g></svg>